<svg xmlns="http://www.w3.org/2000/svg" viewBox="0 0 1028 800" stroke="#000000" fill="transparent">
    <g id="SVGRepo_bgCarrier" stroke-width="0" transform="matrix(1, 0, 0, 1, 1.1368683772161603e-13, 0)"/>
    <g id="SVGRepo_tracerCarrier" stroke-linecap="round" stroke-linejoin="round" stroke="#CCCCCC" stroke-width="3.072" transform="matrix(1, 0, 0, 1, 1.1368683772161603e-13, 0)"/>
    <g id="SVGRepo_iconCarrier" style="" transform="matrix(1.9787729978561401, 0, 0, 2.3363490104675293, 15.840682983398551, -111.55290222167969)">
        <path stroke="#BFBCAF" stroke-width="8" d="M168.465 391.022h314.59c3.747 0 5.954-4.206 3.825-7.29L329.585 130.298c-1.848-2.676-5.803-2.676-7.651 0L164.639 383.733c-2.128 3.083.079 7.289 3.826 7.289z"/>
        <path stroke="#FF473E" stroke-width="8" d="M202.068 323.393l4.403.034h243.105l-9.301-14.786h-229.25l-8.957 14.752z"/>
        <path stroke="#FF473E" stroke-width="8" d="M191.954 339.723l-9.177 14.786h285.965l-9.177-14.786z"/>
        <path stroke="#2B3B47" stroke-width="8" d="M325.76 163.418l-81.528 227.604h81.528z"/>
        <path stroke="#8E6049" stroke-width="8" d="M 167.007 390.233 C 165.69553847840976 390.2347418274505 164.44477997984825 389.68058498016006 163.565 388.708 L 145.373 368.624 C 142.97391720279276 365.9755018457841 144.34157380806252 361.7231071883559 147.83478189009332 360.9696896173002 C 149.45598537672683 360.6200273113615 151.14058179709272 361.16182776686844 152.254 362.391 L 170.446 382.475 C 172.8446981688816 385.1236844781843 171.47659946988568 389.3757792163681 167.98342234072774 390.12877052753856 C 167.66254707786376 390.1979385874372 167.33524554794215 390.2328771817556 167.007 390.233 Z"/>
        <path stroke="#8E6049" stroke-width="8" d="M 416.88 388.707 L 435.072 368.623 C 437.47108279006017 365.97450183931005 436.1034261716262 361.7221071874371 432.6102180875623 360.9686896258079 C 430.989014608735 360.61902732613123 429.3044182002151 361.16082777650695 428.19100000000003 362.39 L 409.999 382.474 C 407.59991720993986 385.12249816068993 408.9675738283738 389.3748928125629 412.4607819124377 390.1283103741921 C 414.08198539126505 390.47797267386875 415.76658179978494 389.93617222349303 416.88 388.707 Z"/>
        <path stroke="#8E6049" stroke-width="8" d="M 487.955 388.707 L 506.147 368.623 C 508.546082775766 365.97450182636203 507.1784261369194 361.72210717906864 503.68521804878924 360.96868963629254 C 502.0640145855743 360.61902734913997 500.3794181948305 361.160827795784 499.26599999999996 362.39 L 481.07399999999996 382.474 C 478.6749172099398 385.12249816068993 480.04257382837375 389.3748928125629 483.53578191243764 390.1283103741921 C 485.156985391265 390.47797267386875 486.8415817997849 389.93617222349303 487.9549999999999 388.707 L 487.955 388.707 Z"/>
        <path stroke="#BFBCAF" stroke-width="8" d="M502.091 373.401h-10.192a1.85 1.85 0 0 1 0-3.698h6.601L325.76 127.936L153.02 369.704h7.689a1.848 1.848 0 0 1 0 3.698h-11.282a1.847 1.847 0 0 1-1.504-2.923l176.332-246.795c.693-.971 2.314-.971 3.008 0l176.332 246.795a1.85 1.85 0 0 1 .14 1.92a1.851 1.851 0 0 1-1.644 1.002z"/>
        <path stroke="#E5E4DF" stroke-width="8" d="M244.232 391.022l67.132-187.414s-55.829 116.389-104.42 152.532c-.001-.001 13.877 34.882 37.288 34.882z"/>
        <path stroke="#E5E4DF" stroke-width="8" d="M431.632 373.401h-13.004a1.85 1.85 0 0 1 0-3.698h10.2L324.061 125.486a1.848 1.848 0 1 1 3.397-1.457l105.873 246.795a1.848 1.848 0 0 1-1.699 2.577z"/>
        <path stroke="#8E6049" stroke-width="8" d="M66.544 385.448v-88.937c0-7.432 6.026-13.465 13.462-13.465s13.462 6.033 13.462 13.465v88.937c0 7.432-26.924 7.432-26.924 0z"/>
        <path stroke="#2BA52E" stroke-width="8" d="M153.405 350.217c.645-.774 1.043-1.521 1.221-2.243c1.22-3.166.919-7.112-1.688-9.973c-12.92-14.182-26.929-35.896-39.542-57.818c7.133 2.404 14.385 3.848 20.978 4.686c5.99.761 9.498-7.81 5.093-12.645c-11.27-12.37-23.536-31.638-34.411-50.762c6.037 2.165 12.235 3.425 17.831 4.137c4.733.602 7.504-6.171 4.024-9.991c-14.949-16.409-32.118-48.173-42.569-68.975c-.419-1.343-1.237-2.356-2.226-2.992l-.045-.028a4.876 4.876 0 0 0-.926-.458a4.238 4.238 0 0 0-1.063-.242a4.257 4.257 0 0 0-.844 0a4.238 4.238 0 0 0-1.063.242a4.648 4.648 0 0 0-.926.458l-.045.028c-.99.636-1.807 1.648-2.226 2.992c-10.452 20.802-27.62 52.566-42.569 68.975c-3.48 3.82-.709 10.592 4.024 9.991c5.597-.711 11.795-1.971 17.831-4.137c-10.875 19.124-23.141 38.392-34.411 50.762c-4.405 4.835-.897 13.407 5.093 12.645c6.593-.838 13.844-2.281 20.978-4.686c-12.613 21.922-26.622 43.636-39.542 57.818c-4.044 4.44-2.544 11.491 1.594 14.182c17.751 18.496 40.411 19.935 72.029 19.935c32.498 0 58.336-5.34 72.388-20.759a8.37 8.37 0 0 0 1.012-1.142z"/>
    </g>
</svg>