<?xml version="1.0" encoding="iso-8859-1"?>
<!-- Uploaded to: SVG Repo, www.svgrepo.com, Generator: SVG Repo Mixer Tools -->
<!DOCTYPE svg PUBLIC "-//W3C//DTD SVG 1.1//EN" "http://www.w3.org/Graphics/SVG/1.1/DTD/svg11.dtd">
<svg fill="transparent" version="1.1" id="Capa_1" xmlns="http://www.w3.org/2000/svg" xmlns:xlink="http://www.w3.org/1999/xlink"
	 width="800px" height="800px" viewBox="0 0 486.113 486.113"
	 xml:space="preserve">
<g>
	<g>
		<path stroke="#97623a" stroke-width="7px" d="M388.361,124.681c3.198,0.81,6.497,1.215,9.798,1.215c16.248,0,31.23-10.254,37.108-25.409
			c5.945-15.336,1.595-33.211-10.688-44.128c-12.289-10.926-30.608-13.126-45.129-5.38c-14.433,7.701-22.806,23.889-20.773,40.119
			C360.685,107.137,372.69,120.713,388.361,124.681z"/>
		<path stroke="#9800ff" stroke-width="7px"  d="M486.04,242.101c0.013,0.421,0.016,0.379-0.02-1.216c-0.015-0.392-0.02-0.483-0.02-0.405
			c-0.764-20.169-5.106-40.449-13.886-58.682c-4.844-10.062-11.032-19.482-18.558-27.744c-3.597-3.951-7.458-7.665-11.628-11.008
			c-3.779-3.029-7.798-5.921-12.133-8.107c-4.491-2.266-9.21-4.07-14.21-4.809c-5.179-0.765-10.526-0.564-15.585,0.792
			c-7.08,1.898-16.697,9.546-18.598,11.234c-4.187,3.72-8.866,7.439-13.054,11.158l-24.382,21.662l-25.625,22.766
			c-5.43,4.824-10.86,9.647-16.29,14.471c-0.512,0.457-1.026,0.913-1.541,1.37c-4.414,3.948-5.035,10.532-2.045,15.255
			c-0.854,0.305-1.672,0.751-2.411,1.36c-5.204,4.286-10.704,7.923-17.54,8.843c-6.399,0.861-13.424-0.842-18.206-5.041
			c-11.452-10.052-26.238-9.257-37.909,0.058c-4.95,3.95-11.76,5.839-18.127,4.983c-6.831-0.92-12.344-4.554-17.541-8.845
			c-0.042-0.035-0.087-0.063-0.13-0.096c1.117-4.144-0.056-8.805-3.454-11.825c-4.161-3.696-8.322-7.393-12.482-11.089
			c-9.145-8.124-18.287-16.247-27.432-24.37c-9.117-8.101-18.236-16.202-27.355-24.303c-2.984-2.652-11.476-10.283-12.764-11.41
			c-9.197-8.028-19.527-12.367-30.957-11.433c-11.012,0.9-20.846,6.759-29.224,13.613c-9.421,7.708-17.474,17.261-23.7,27.709
			c-5.693,9.554-9.88,19.708-13.125,30.326c-3.465,11.329-4.998,23.207-5.785,34.989c-0.789,11.81-0.045,23.655,1.163,35.407
			c0.067,0.657,0.135,1.316,0.204,1.975c0.65,6.148,6.211,10.848,12.383,10.433c6.125-0.411,10.98-5.726,10.857-11.86
			c-0.08-4.129-0.199-8.254-0.115-12.383c0.122-6.117,0.57-12.168,1.195-18.252c1.133-11.035,3.828-22.218,7.963-32.51
			c0.727-1.807,1.473-3.602,2.293-5.369v34.555L9.043,343.966c-0.492,2.508,0.158,5.076,1.778,7.047
			c1.623,1.973,4.019,3.104,6.573,3.104h29.206l6.864,31.956c1.521,7.123,8.655,11.842,15.805,10.52l-2.303-43.017h4.87
			l4.153,73.249c0.384,7.113,6.439,12.898,13.57,12.908c7.195,0.01,13.289-5.84,13.588-13.025l3.289-72.591h28.022
			c2.555,0,4.95-1.131,6.573-3.104c1.62-1.971,2.271-4.539,1.778-7.047l-28.334-100.066v-46.413l54.1,38.98
			c1.594,1.14,3.404,1.816,5.258,2.06c0.319,1.212,0.916,2.361,1.796,3.331c5.23,5.762,10.956,10.666,18.054,13.992
			c6.385,2.992,13.573,4.244,20.593,3.856v22.718l-19.878,78.116c-0.317,1.626,0.103,3.292,1.153,4.569
			c1.053,1.279,2.607,2.013,4.263,2.013h16.082l2.879,63.462c0.24,4.973,4.479,9.02,9.462,9c4.925-0.021,9.097-3.998,9.364-8.91
			l3.485-63.552h0.77l2.878,63.462c0.243,4.973,4.48,9.02,9.464,9c4.925-0.021,9.097-3.998,9.363-8.91l3.484-63.552h15.902
			c1.651,0,3.203-0.731,4.256-2.006s1.477-2.937,1.155-4.591l-19.861-77.273v-23.547c6.904,0.387,13.983-0.816,20.288-3.706
			c7.236-3.313,13.068-8.293,18.378-14.141c1.9-2.09,2.525-4.991,1.784-7.622c2.207-0.106,4.411-0.821,6.338-2.209l54.847-39.519
			v78.662c0,3.957-0.042,7.9,0.122,11.854c0.266,6.324,0.531,12.646,0.796,18.971l1.306,31.125
			c0.497,11.852,0.994,23.701,1.493,35.551c0.449,10.749,0.899,21.498,1.352,32.248c0.297,7.07,0.593,14.141,0.89,21.211
			c0.061,1.406,0.116,2.812,0.178,4.221c0.328,7.287,6.528,13.23,13.829,13.205c7.224-0.025,13.339-5.875,13.703-13.086
			l5.683-111.963c1.794,0,3.575-0.1,5.355-0.326l-3.964,78.486c7.388,1.484,14.618-3.232,16.204-10.621l3.109-14.488
			c2.298-10.684,4.592-21.365,6.888-32.049l6.976-32.476c1.129-5.259,2.26-10.517,3.389-15.774c0.32-1.492,0.868-2.937,1.178-4.441
			c0.534-2.613,0.806-5.281,0.806-7.949v-69.933c3.854,8.308,6.667,17.186,8.41,26.17c1.095,5.635,1.92,11.27,2.479,16.982
			c0.536,5.434,0.66,10.885,0.771,16.34c0.065,3.336-0.103,6.682-0.17,10.018c-0.107,6.244,4.881,11.607,11.106,11.984
			c6.233,0.377,11.816-4.373,12.457-10.582c0.504-4.904,1-9.797,1.298-14.719C486.161,254.781,486.164,248.453,486.04,242.101z
			 M241.98,276.095l-0.573,0.359l-0.755-0.468c-0.081-0.05-0.161-0.099-0.24-0.149c-1.43-0.9-2.783-1.929-4.097-2.99
			c-1.795-1.449-3.514-2.996-5.133-4.64c-1.73-1.758-3.356-3.634-4.749-5.674c-1.272-1.862-2.383-3.897-2.952-6.093
			c-0.504-1.946-0.521-4.021,0.266-5.896c0.418-0.998,1.038-1.898,1.78-2.682c0.933-0.984,2.062-1.846,3.265-2.471
			c1.452-0.756,3.083-1.08,4.712-0.959c1.421,0.105,2.806,0.524,4.093,1.125c1.002,0.465,1.954,1.041,2.841,1.701
			c0.063,0.047,0.962,0.797,0.98,0.778c0.392-0.362,0.821-0.687,1.257-0.996c0.953-0.676,1.978-1.259,3.055-1.711
			c1.334-0.56,2.768-0.915,4.219-0.923c1.683-0.01,3.322,0.475,4.745,1.37C269.406,255.03,247.525,272.802,241.98,276.095z"/>
		<path stroke="#f5cab5" stroke-width="7px" d="M75.372,131.782c18.267,0,34.562-13.127,38.382-31.004c1.91-8.932,0.622-18.431-3.635-26.514
			c-4.1-7.778-10.82-14.065-18.86-17.628c-8.36-3.706-17.96-4.352-26.751-1.825c-8.479,2.438-15.996,7.788-21.113,14.97
			c-10.702,15.016-9.271,36.108,3.318,49.563C54.092,127.231,64.572,131.782,75.372,131.782z"/>
		<path stroke="#e79c7c" stroke-width="7px" d="M231.728,224.998c3.08,1.169,6.367,1.765,9.661,1.765c9.036,0,17.642-4.617,22.654-12.134
			c5.083-7.623,5.959-17.579,2.285-25.975c-3.58-8.183-11.173-14.233-19.959-15.858c-8.98-1.661-18.379,1.375-24.683,7.984
			c-6.307,6.619-8.889,16.188-6.772,25.086C216.976,214.548,223.389,221.829,231.728,224.998z"/>
	</g>
</g>
</svg>