<svg id="visual" viewBox="0 0 900 600" width="900" height="600" xmlns="http://www.w3.org/2000/svg" xmlns:xlink="http://www.w3.org/1999/xlink" version="1.1"><rect x="0" y="0" width="900" height="600" fill="#012d50"></rect><path d="M0 455L39 455L39 479L78 479L78 446L117 446L117 450L157 450L157 450L196 450L196 460L235 460L235 444L274 444L274 450L313 450L313 460L352 460L352 481L391 481L391 446L430 446L430 462L470 462L470 485L509 485L509 451L548 451L548 454L587 454L587 474L626 474L626 484L665 484L665 474L704 474L704 472L743 472L743 450L783 450L783 477L822 477L822 458L861 458L861 463L900 463L900 458L900 601L900 601L861 601L861 601L822 601L822 601L783 601L783 601L743 601L743 601L704 601L704 601L665 601L665 601L626 601L626 601L587 601L587 601L548 601L548 601L509 601L509 601L470 601L470 601L430 601L430 601L391 601L391 601L352 601L352 601L313 601L313 601L274 601L274 601L235 601L235 601L196 601L196 601L157 601L157 601L117 601L117 601L78 601L78 601L39 601L39 601L0 601Z" fill="#b3e5ff"></path><path d="M0 500L39 500L39 470L78 470L78 471L117 471L117 491L157 491L157 474L196 474L196 503L235 503L235 485L274 485L274 489L313 489L313 472L352 472L352 497L391 497L391 506L430 506L430 494L470 494L470 474L509 474L509 498L548 498L548 470L587 470L587 505L626 505L626 478L665 478L665 478L704 478L704 468L743 468L743 474L783 474L783 471L822 471L822 472L861 472L861 504L900 504L900 477L900 601L900 601L861 601L861 601L822 601L822 601L783 601L783 601L743 601L743 601L704 601L704 601L665 601L665 601L626 601L626 601L587 601L587 601L548 601L548 601L509 601L509 601L470 601L470 601L430 601L430 601L391 601L391 601L352 601L352 601L313 601L313 601L274 601L274 601L235 601L235 601L196 601L196 601L157 601L157 601L117 601L117 601L78 601L78 601L39 601L39 601L0 601Z" fill="#87b9d9"></path><path d="M0 521L39 521L39 514L78 514L78 517L117 517L117 536L157 536L157 495L196 495L196 506L235 506L235 533L274 533L274 520L313 520L313 536L352 536L352 522L391 522L391 530L430 530L430 518L470 518L470 515L509 515L509 511L548 511L548 495L587 495L587 511L626 511L626 534L665 534L665 529L704 529L704 520L743 520L743 522L783 522L783 526L822 526L822 513L861 513L861 497L900 497L900 503L900 601L900 601L861 601L861 601L822 601L822 601L783 601L783 601L743 601L743 601L704 601L704 601L665 601L665 601L626 601L626 601L587 601L587 601L548 601L548 601L509 601L509 601L470 601L470 601L430 601L430 601L391 601L391 601L352 601L352 601L313 601L313 601L274 601L274 601L235 601L235 601L196 601L196 601L157 601L157 601L117 601L117 601L78 601L78 601L39 601L39 601L0 601Z" fill="#5d8eb3"></path><path d="M0 558L39 558L39 526L78 526L78 552L117 552L117 527L157 527L157 556L196 556L196 561L235 561L235 531L274 531L274 531L313 531L313 537L352 537L352 546L391 546L391 547L430 547L430 524L470 524L470 528L509 528L509 534L548 534L548 524L587 524L587 543L626 543L626 547L665 547L665 561L704 561L704 524L743 524L743 548L783 548L783 542L822 542L822 541L861 541L861 535L900 535L900 556L900 601L900 601L861 601L861 601L822 601L822 601L783 601L783 601L743 601L743 601L704 601L704 601L665 601L665 601L626 601L626 601L587 601L587 601L548 601L548 601L509 601L509 601L470 601L470 601L430 601L430 601L391 601L391 601L352 601L352 601L313 601L313 601L274 601L274 601L235 601L235 601L196 601L196 601L157 601L157 601L117 601L117 601L78 601L78 601L39 601L39 601L0 601Z" fill="#34658e"></path><path d="M0 568L39 568L39 572L78 572L78 565L117 565L117 555L157 555L157 583L196 583L196 568L235 568L235 559L274 559L274 566L313 566L313 575L352 575L352 570L391 570L391 552L430 552L430 577L470 577L470 567L509 567L509 556L548 556L548 567L587 567L587 564L626 564L626 573L665 573L665 565L704 565L704 555L743 555L743 554L783 554L783 553L822 553L822 568L861 568L861 564L900 564L900 583L900 601L900 601L861 601L861 601L822 601L822 601L783 601L783 601L743 601L743 601L704 601L704 601L665 601L665 601L626 601L626 601L587 601L587 601L548 601L548 601L509 601L509 601L470 601L470 601L430 601L430 601L391 601L391 601L352 601L352 601L313 601L313 601L274 601L274 601L235 601L235 601L196 601L196 601L157 601L157 601L117 601L117 601L78 601L78 601L39 601L39 601L0 601Z" fill="#013f6a"></path></svg>